<?xml version="1.0" standalone="no"?>
<!DOCTYPE svg PUBLIC "-//W3C//DTD SVG 20010904//EN"
 "http://www.w3.org/TR/2001/REC-SVG-20010904/DTD/svg10.dtd">
<svg version="1.0" xmlns="http://www.w3.org/2000/svg"
 width="450.000000pt" height="450.000000pt" viewBox="0 0 450.000000 450.000000"
 preserveAspectRatio="xMidYMid meet">

<g transform="translate(0.000000,450.000000) scale(0.100000,-0.100000)"
fill="#000000" stroke="none">
<path d="M130 2495 l0 -555 2118 2 2117 3 3 553 2 552 -2120 0 -2120 0 0 -555z
m792 255 c99 -28 173 -129 173 -235 -1 -95 -48 -169 -140 -219 -37 -19 -55
-21 -230 -21 -214 0 -244 6 -308 64 -134 120 -88 346 82 407 45 16 369 19 423
4z m698 -12 c82 -41 112 -143 67 -222 -26 -46 -68 -74 -128 -84 l-42 -7 81
-69 c45 -38 82 -73 82 -78 0 -4 -27 -8 -60 -8 -59 0 -60 0 -138 68 -154 133
-192 167 -192 175 0 4 63 7 140 7 127 0 142 2 160 20 27 27 27 83 -2 110 -20
18 -35 20 -185 20 l-163 0 -2 -197 -3 -198 -45 0 -45 0 -3 243 -2 242 218 0
c206 0 220 -1 262 -22z m476 14 c14 -9 304 -460 304 -473 0 -5 -23 -9 -50 -9
-49 0 -52 1 -78 45 l-27 44 -127 1 -126 0 -21 36 c-12 19 -21 39 -21 44 0 5
52 11 114 12 l115 3 -61 98 c-33 54 -62 97 -63 95 -1 -2 -37 -59 -80 -128
-167 -269 -151 -250 -206 -250 -26 0 -50 3 -52 8 -4 6 260 428 292 466 14 16
67 22 87 8z m824 -2 c0 -6 -10 -26 -22 -45 l-23 -35 -149 0 c-129 0 -155 -3
-191 -20 -96 -46 -113 -174 -33 -246 40 -37 83 -44 259 -44 93 0 169 -2 169
-5 0 -3 -12 -24 -27 -46 l-27 -41 -165 4 c-191 4 -230 16 -292 85 -118 131
-60 342 109 393 40 12 392 12 392 0z m150 -190 l0 -200 210 0 c116 0 210 -3
210 -8 0 -4 -11 -24 -25 -45 l-26 -37 -214 0 c-202 0 -216 1 -235 20 -19 19
-20 33 -20 238 0 120 3 222 7 225 3 4 26 7 50 7 l43 0 0 -200z m970 192 c0 -4
-11 -24 -25 -45 l-26 -37 -150 0 c-163 0 -193 -7 -236 -59 -43 -50 -41 -51
198 -51 l220 0 -25 -42 -26 -43 -195 -3 c-114 -1 -195 -6 -195 -12 0 -22 62
-77 98 -88 23 -7 107 -12 206 -12 91 0 166 -2 166 -5 0 -18 -49 -76 -68 -81
-13 -4 -91 -4 -175 -2 -166 5 -201 15 -261 74 -99 100 -92 269 15 356 62 50
97 57 297 58 100 0 182 -3 182 -8z m134 -8 c33 -33 9 -94 -36 -94 -28 0 -58
28 -58 53 0 48 61 74 94 41z"/>
<path d="M513 2649 c-31 -15 -48 -33 -64 -65 -37 -78 -13 -155 62 -199 31 -18
52 -20 211 -20 197 0 206 3 256 76 30 43 27 120 -6 166 -39 55 -72 63 -254 63
-145 0 -168 -2 -205 -21z"/>
<path d="M4158 2709 c4 -27 6 -29 14 -14 7 12 6 21 -4 32 -13 12 -14 10 -10
-18z"/>
<path d="M4104 2700 c1 -18 7 -26 25 -28 14 -2 21 0 17 7 -4 5 -13 8 -21 5 -9
-4 -15 3 -18 18 -4 21 -4 21 -3 -2z"/>
<path d="M1415 1735 c-94 -36 -148 -138 -125 -234 27 -112 86 -154 212 -149
l73 3 3 33 3 32 -65 0 c-55 0 -69 4 -95 26 -75 63 -53 199 36 223 20 6 55 8
78 4 40 -5 42 -4 48 23 3 16 2 33 -3 37 -15 16 -124 17 -165 2z"/>
<path d="M2085 1741 l-50 -6 0 -190 0 -190 60 -3 c174 -9 263 44 280 167 21
157 -92 244 -290 222z m140 -76 c43 -21 60 -57 59 -120 -2 -83 -40 -123 -119
-128 l-40 -2 -3 119 c-1 66 0 126 2 133 7 18 61 16 101 -2z"/>
<path d="M1001 1658 c-14 -46 -37 -121 -51 -168 -47 -150 -47 -140 4 -140 l44
0 12 50 12 50 59 0 58 0 14 -47 c14 -48 14 -48 60 -51 26 -2 47 -2 47 0 0 2
-26 89 -59 193 l-58 190 -59 3 -59 3 -24 -83z m116 -133 c-4 -12 -77 -15 -77
-2 0 9 27 111 37 137 6 15 45 -117 40 -135z"/>
<path d="M1687 1552 c-31 -103 -57 -191 -57 -195 0 -5 19 -7 42 -5 41 3 43 5
57 51 l15 47 56 0 56 0 15 -47 c15 -48 15 -48 63 -51 40 -3 48 0 43 12 -5 12
-53 165 -108 344 -10 31 -12 32 -68 32 l-57 0 -57 -188z m132 53 c22 -83 21
-88 -21 -90 -23 -2 -38 2 -38 9 0 25 35 145 40 138 3 -4 12 -29 19 -57z"/>
<path d="M2440 1545 l0 -196 122 3 122 3 1 30 0 30 -80 5 -80 5 0 45 0 45 73
3 72 3 0 34 0 35 -76 0 -75 0 3 38 3 37 78 3 77 3 0 34 0 35 -120 0 -120 0 0
-195z"/>
<path d="M2756 1618 c-3 -68 -9 -156 -12 -195 l-7 -73 42 0 c41 0 41 0 42 38
1 20 4 87 8 147 6 109 7 110 19 65 7 -25 24 -89 39 -143 l27 -98 35 3 c34 3
36 5 53 63 45 158 66 219 72 205 3 -8 7 -73 8 -145 l3 -130 44 -3 43 -3 -6 68
c-3 37 -8 125 -12 196 l-6 127 -58 0 -57 0 -31 -102 c-17 -57 -34 -116 -38
-132 -8 -35 -17 -22 -34 54 -7 30 -21 83 -32 118 l-19 62 -58 0 -58 0 -7 -122z"/>
<path d="M3269 1626 c60 -113 61 -116 61 -196 l0 -81 43 3 42 3 5 90 c5 83 8
95 46 160 23 39 49 85 58 103 l17 32 -48 0 -48 0 -29 -75 c-16 -42 -32 -78
-36 -80 -4 -3 -23 31 -41 75 l-33 80 -49 0 -48 0 60 -114z"/>
</g>
</svg>
